<mxfile host="app.diagrams.net" modified="2023-03-25T12:17:51.650Z" agent="5.0 (Macintosh; Intel Mac OS X 10_15_7) AppleWebKit/537.36 (KHTML, like Gecko) Chrome/111.0.0.0 Safari/537.36" etag="n_BY94_gv66ZCHPi25xs" version="21.0.6" type="github" pages="5">
  <diagram id="pdiULxgELQt_7dRJayev" name="UC - System Model">
    <mxGraphModel dx="1511" dy="795" grid="1" gridSize="10" guides="1" tooltips="1" connect="1" arrows="1" fold="1" page="1" pageScale="1" pageWidth="850" pageHeight="1100" math="0" shadow="0">
      <root>
        <mxCell id="0" />
        <mxCell id="1" parent="0" />
        <mxCell id="OzNtAT2oCmJ4MhUfqjPq-20" value="Ledger" style="shape=table;startSize=30;container=1;collapsible=0;childLayout=tableLayout;fixedRows=1;rowLines=0;fontStyle=1;strokeColor=default;fontSize=18;" vertex="1" parent="1">
          <mxGeometry x="40" y="10" width="250" height="120" as="geometry" />
        </mxCell>
        <mxCell id="OzNtAT2oCmJ4MhUfqjPq-21" value="" style="shape=tableRow;horizontal=0;startSize=0;swimlaneHead=0;swimlaneBody=0;top=0;left=0;bottom=0;right=0;collapsible=0;dropTarget=0;fillColor=none;points=[[0,0.5],[1,0.5]];portConstraint=eastwest;strokeColor=inherit;fontSize=16;" vertex="1" parent="OzNtAT2oCmJ4MhUfqjPq-20">
          <mxGeometry y="30" width="250" height="30" as="geometry" />
        </mxCell>
        <mxCell id="OzNtAT2oCmJ4MhUfqjPq-22" value="" style="shape=partialRectangle;html=1;whiteSpace=wrap;connectable=0;fillColor=none;top=0;left=0;bottom=0;right=0;overflow=hidden;pointerEvents=1;strokeColor=inherit;fontSize=16;" vertex="1" parent="OzNtAT2oCmJ4MhUfqjPq-21">
          <mxGeometry width="56" height="30" as="geometry">
            <mxRectangle width="56" height="30" as="alternateBounds" />
          </mxGeometry>
        </mxCell>
        <mxCell id="OzNtAT2oCmJ4MhUfqjPq-23" value="Version: 0.0" style="shape=partialRectangle;html=1;whiteSpace=wrap;connectable=0;fillColor=none;top=0;left=0;bottom=0;right=0;align=left;spacingLeft=6;overflow=hidden;strokeColor=inherit;fontSize=16;" vertex="1" parent="OzNtAT2oCmJ4MhUfqjPq-21">
          <mxGeometry x="56" width="194" height="30" as="geometry">
            <mxRectangle width="194" height="30" as="alternateBounds" />
          </mxGeometry>
        </mxCell>
        <mxCell id="OzNtAT2oCmJ4MhUfqjPq-24" value="" style="shape=tableRow;horizontal=0;startSize=0;swimlaneHead=0;swimlaneBody=0;top=0;left=0;bottom=0;right=0;collapsible=0;dropTarget=0;fillColor=none;points=[[0,0.5],[1,0.5]];portConstraint=eastwest;strokeColor=inherit;fontSize=16;" vertex="1" parent="OzNtAT2oCmJ4MhUfqjPq-20">
          <mxGeometry y="60" width="250" height="30" as="geometry" />
        </mxCell>
        <mxCell id="OzNtAT2oCmJ4MhUfqjPq-25" value="" style="shape=partialRectangle;html=1;whiteSpace=wrap;connectable=0;fillColor=none;top=0;left=0;bottom=0;right=0;overflow=hidden;strokeColor=inherit;fontSize=16;" vertex="1" parent="OzNtAT2oCmJ4MhUfqjPq-24">
          <mxGeometry width="56" height="30" as="geometry">
            <mxRectangle width="56" height="30" as="alternateBounds" />
          </mxGeometry>
        </mxCell>
        <mxCell id="OzNtAT2oCmJ4MhUfqjPq-26" value="Draft" style="shape=partialRectangle;html=1;whiteSpace=wrap;connectable=0;fillColor=none;top=0;left=0;bottom=0;right=0;align=left;spacingLeft=6;overflow=hidden;strokeColor=inherit;fontSize=16;" vertex="1" parent="OzNtAT2oCmJ4MhUfqjPq-24">
          <mxGeometry x="56" width="194" height="30" as="geometry">
            <mxRectangle width="194" height="30" as="alternateBounds" />
          </mxGeometry>
        </mxCell>
        <mxCell id="OzNtAT2oCmJ4MhUfqjPq-27" value="" style="shape=tableRow;horizontal=0;startSize=0;swimlaneHead=0;swimlaneBody=0;top=0;left=0;bottom=0;right=0;collapsible=0;dropTarget=0;fillColor=none;points=[[0,0.5],[1,0.5]];portConstraint=eastwest;strokeColor=inherit;fontSize=16;" vertex="1" parent="OzNtAT2oCmJ4MhUfqjPq-20">
          <mxGeometry y="90" width="250" height="30" as="geometry" />
        </mxCell>
        <mxCell id="OzNtAT2oCmJ4MhUfqjPq-28" value="" style="shape=partialRectangle;html=1;whiteSpace=wrap;connectable=0;fillColor=none;top=0;left=0;bottom=0;right=0;overflow=hidden;strokeColor=inherit;fontSize=16;" vertex="1" parent="OzNtAT2oCmJ4MhUfqjPq-27">
          <mxGeometry width="56" height="30" as="geometry">
            <mxRectangle width="56" height="30" as="alternateBounds" />
          </mxGeometry>
        </mxCell>
        <mxCell id="OzNtAT2oCmJ4MhUfqjPq-29" value="System Modeling" style="shape=partialRectangle;html=1;whiteSpace=wrap;connectable=0;fillColor=none;top=0;left=0;bottom=0;right=0;align=left;spacingLeft=6;overflow=hidden;strokeColor=inherit;fontSize=16;" vertex="1" parent="OzNtAT2oCmJ4MhUfqjPq-27">
          <mxGeometry x="56" width="194" height="30" as="geometry">
            <mxRectangle width="194" height="30" as="alternateBounds" />
          </mxGeometry>
        </mxCell>
        <mxCell id="OzNtAT2oCmJ4MhUfqjPq-2" value="Resource Control" style="verticalAlign=top;align=left;spacingTop=8;spacingLeft=2;spacingRight=12;shape=cube;size=10;direction=south;fontStyle=4;html=1;whiteSpace=wrap;" vertex="1" parent="1">
          <mxGeometry x="250" y="154.96" width="280" height="1025.04" as="geometry" />
        </mxCell>
        <mxCell id="OzNtAT2oCmJ4MhUfqjPq-10" value="System Modeling" style="shape=umlFrame;whiteSpace=wrap;html=1;pointerEvents=0;" vertex="1" parent="1">
          <mxGeometry x="40" y="140" width="550" height="1120" as="geometry" />
        </mxCell>
        <mxCell id="OzNtAT2oCmJ4MhUfqjPq-34" value="" style="group" vertex="1" connectable="0" parent="1">
          <mxGeometry x="130" y="199.78" width="330" height="230.22" as="geometry" />
        </mxCell>
        <mxCell id="OzNtAT2oCmJ4MhUfqjPq-32" value="" style="group" vertex="1" connectable="0" parent="OzNtAT2oCmJ4MhUfqjPq-34">
          <mxGeometry x="60" width="270" height="230.22" as="geometry" />
        </mxCell>
        <mxCell id="OzNtAT2oCmJ4MhUfqjPq-30" value="" style="group" vertex="1" connectable="0" parent="OzNtAT2oCmJ4MhUfqjPq-32">
          <mxGeometry x="130" width="140" height="230.22" as="geometry" />
        </mxCell>
        <mxCell id="OzNtAT2oCmJ4MhUfqjPq-4" value="Declare resource" style="ellipse;whiteSpace=wrap;html=1;" vertex="1" parent="OzNtAT2oCmJ4MhUfqjPq-30">
          <mxGeometry width="140" height="70.22" as="geometry" />
        </mxCell>
        <mxCell id="OzNtAT2oCmJ4MhUfqjPq-7" value="Cancel resource" style="ellipse;whiteSpace=wrap;html=1;" vertex="1" parent="OzNtAT2oCmJ4MhUfqjPq-30">
          <mxGeometry y="80.22" width="140" height="70.52" as="geometry" />
        </mxCell>
        <mxCell id="OzNtAT2oCmJ4MhUfqjPq-8" value="Review resource retaled actions" style="ellipse;whiteSpace=wrap;html=1;" vertex="1" parent="OzNtAT2oCmJ4MhUfqjPq-30">
          <mxGeometry y="160.22" width="140" height="70" as="geometry" />
        </mxCell>
        <mxCell id="OzNtAT2oCmJ4MhUfqjPq-3" value="Volunteer" style="shape=umlActor;verticalLabelPosition=bottom;verticalAlign=top;html=1;" vertex="1" parent="OzNtAT2oCmJ4MhUfqjPq-34">
          <mxGeometry y="40.21777777777777" width="35" height="89.77777777777777" as="geometry" />
        </mxCell>
        <mxCell id="OzNtAT2oCmJ4MhUfqjPq-5" style="rounded=0;orthogonalLoop=1;jettySize=auto;html=1;endArrow=async;endFill=1;" edge="1" parent="OzNtAT2oCmJ4MhUfqjPq-34" source="OzNtAT2oCmJ4MhUfqjPq-3" target="OzNtAT2oCmJ4MhUfqjPq-4">
          <mxGeometry relative="1" as="geometry" />
        </mxCell>
        <mxCell id="OzNtAT2oCmJ4MhUfqjPq-6" value="" style="rounded=0;orthogonalLoop=1;jettySize=auto;html=1;endArrow=async;endFill=1;" edge="1" parent="OzNtAT2oCmJ4MhUfqjPq-34" source="OzNtAT2oCmJ4MhUfqjPq-3" target="OzNtAT2oCmJ4MhUfqjPq-7">
          <mxGeometry relative="1" as="geometry" />
        </mxCell>
        <mxCell id="OzNtAT2oCmJ4MhUfqjPq-9" style="rounded=0;orthogonalLoop=1;jettySize=auto;html=1;entryX=0;entryY=0.5;entryDx=0;entryDy=0;endArrow=async;endFill=1;" edge="1" parent="OzNtAT2oCmJ4MhUfqjPq-34" source="OzNtAT2oCmJ4MhUfqjPq-3" target="OzNtAT2oCmJ4MhUfqjPq-8">
          <mxGeometry relative="1" as="geometry" />
        </mxCell>
        <mxCell id="OzNtAT2oCmJ4MhUfqjPq-35" value="" style="group" vertex="1" connectable="0" parent="1">
          <mxGeometry x="130" y="470" width="320" height="207.13" as="geometry" />
        </mxCell>
        <mxCell id="OzNtAT2oCmJ4MhUfqjPq-33" value="" style="group" vertex="1" connectable="0" parent="OzNtAT2oCmJ4MhUfqjPq-35">
          <mxGeometry x="50" width="270" height="207.13" as="geometry" />
        </mxCell>
        <mxCell id="OzNtAT2oCmJ4MhUfqjPq-31" value="" style="group" vertex="1" connectable="0" parent="OzNtAT2oCmJ4MhUfqjPq-33">
          <mxGeometry x="130" width="140" height="207.13" as="geometry" />
        </mxCell>
        <mxCell id="OzNtAT2oCmJ4MhUfqjPq-12" value="Declare need" style="ellipse;whiteSpace=wrap;html=1;" vertex="1" parent="OzNtAT2oCmJ4MhUfqjPq-31">
          <mxGeometry width="140" height="59.52" as="geometry" />
        </mxCell>
        <mxCell id="OzNtAT2oCmJ4MhUfqjPq-14" value="Cancel need" style="ellipse;whiteSpace=wrap;html=1;" vertex="1" parent="OzNtAT2oCmJ4MhUfqjPq-31">
          <mxGeometry y="68.51999999999998" width="140" height="62.34" as="geometry" />
        </mxCell>
        <mxCell id="OzNtAT2oCmJ4MhUfqjPq-16" value="Review need related actions" style="ellipse;whiteSpace=wrap;html=1;" vertex="1" parent="OzNtAT2oCmJ4MhUfqjPq-31">
          <mxGeometry y="144.5" width="140" height="62.63" as="geometry" />
        </mxCell>
        <mxCell id="OzNtAT2oCmJ4MhUfqjPq-11" value="Subject in need" style="shape=umlActor;verticalLabelPosition=bottom;verticalAlign=top;html=1;" vertex="1" parent="OzNtAT2oCmJ4MhUfqjPq-35">
          <mxGeometry y="26.997777777777685" width="35" height="89.77777777777777" as="geometry" />
        </mxCell>
        <mxCell id="OzNtAT2oCmJ4MhUfqjPq-13" style="rounded=0;orthogonalLoop=1;jettySize=auto;html=1;endArrow=openAsync;endFill=0;" edge="1" parent="OzNtAT2oCmJ4MhUfqjPq-35" source="OzNtAT2oCmJ4MhUfqjPq-11" target="OzNtAT2oCmJ4MhUfqjPq-12">
          <mxGeometry relative="1" as="geometry" />
        </mxCell>
        <mxCell id="OzNtAT2oCmJ4MhUfqjPq-15" style="rounded=0;orthogonalLoop=1;jettySize=auto;html=1;endArrow=async;endFill=1;" edge="1" parent="OzNtAT2oCmJ4MhUfqjPq-35" source="OzNtAT2oCmJ4MhUfqjPq-11" target="OzNtAT2oCmJ4MhUfqjPq-14">
          <mxGeometry relative="1" as="geometry" />
        </mxCell>
        <mxCell id="OzNtAT2oCmJ4MhUfqjPq-17" style="rounded=0;orthogonalLoop=1;jettySize=auto;html=1;endArrow=openAsync;endFill=0;" edge="1" parent="OzNtAT2oCmJ4MhUfqjPq-35" source="OzNtAT2oCmJ4MhUfqjPq-11" target="OzNtAT2oCmJ4MhUfqjPq-16">
          <mxGeometry relative="1" as="geometry" />
        </mxCell>
        <mxCell id="OzNtAT2oCmJ4MhUfqjPq-46" value="Assign resource to need" style="ellipse;whiteSpace=wrap;html=1;" vertex="1" parent="1">
          <mxGeometry x="310" y="980" width="140" height="62.63" as="geometry" />
        </mxCell>
        <mxCell id="OzNtAT2oCmJ4MhUfqjPq-50" style="rounded=0;orthogonalLoop=1;jettySize=auto;html=1;" edge="1" parent="1" source="OzNtAT2oCmJ4MhUfqjPq-42" target="OzNtAT2oCmJ4MhUfqjPq-46">
          <mxGeometry relative="1" as="geometry" />
        </mxCell>
        <mxCell id="OzNtAT2oCmJ4MhUfqjPq-51" style="rounded=0;orthogonalLoop=1;jettySize=auto;html=1;" edge="1" parent="1" source="OzNtAT2oCmJ4MhUfqjPq-42" target="OzNtAT2oCmJ4MhUfqjPq-49">
          <mxGeometry relative="1" as="geometry" />
        </mxCell>
        <mxCell id="OzNtAT2oCmJ4MhUfqjPq-42" value="Supervisor" style="shape=umlActor;verticalLabelPosition=bottom;verticalAlign=top;html=1;" vertex="1" parent="1">
          <mxGeometry x="130" y="786.9977777777776" width="35" height="89.77777777777777" as="geometry" />
        </mxCell>
        <mxCell id="OzNtAT2oCmJ4MhUfqjPq-43" style="rounded=0;orthogonalLoop=1;jettySize=auto;html=1;endArrow=openAsync;endFill=0;" edge="1" parent="1" source="OzNtAT2oCmJ4MhUfqjPq-42" target="OzNtAT2oCmJ4MhUfqjPq-39">
          <mxGeometry relative="1" as="geometry" />
        </mxCell>
        <mxCell id="OzNtAT2oCmJ4MhUfqjPq-44" style="rounded=0;orthogonalLoop=1;jettySize=auto;html=1;endArrow=async;endFill=1;" edge="1" parent="1" source="OzNtAT2oCmJ4MhUfqjPq-42" target="OzNtAT2oCmJ4MhUfqjPq-40">
          <mxGeometry relative="1" as="geometry" />
        </mxCell>
        <mxCell id="OzNtAT2oCmJ4MhUfqjPq-45" style="rounded=0;orthogonalLoop=1;jettySize=auto;html=1;endArrow=openAsync;endFill=0;" edge="1" parent="1" source="OzNtAT2oCmJ4MhUfqjPq-42" target="OzNtAT2oCmJ4MhUfqjPq-41">
          <mxGeometry relative="1" as="geometry" />
        </mxCell>
        <mxCell id="OzNtAT2oCmJ4MhUfqjPq-39" value="Review needs" style="ellipse;whiteSpace=wrap;html=1;" vertex="1" parent="1">
          <mxGeometry x="310" y="760" width="140" height="59.52" as="geometry" />
        </mxCell>
        <mxCell id="OzNtAT2oCmJ4MhUfqjPq-40" value="Review resources" style="ellipse;whiteSpace=wrap;html=1;" vertex="1" parent="1">
          <mxGeometry x="310" y="828.52" width="140" height="62.34" as="geometry" />
        </mxCell>
        <mxCell id="OzNtAT2oCmJ4MhUfqjPq-41" value="Review actions" style="ellipse;whiteSpace=wrap;html=1;" vertex="1" parent="1">
          <mxGeometry x="310" y="904.5" width="140" height="62.63" as="geometry" />
        </mxCell>
        <mxCell id="OzNtAT2oCmJ4MhUfqjPq-49" value="Cancel assignment" style="ellipse;whiteSpace=wrap;html=1;" vertex="1" parent="1">
          <mxGeometry x="310" y="1060" width="140" height="62.63" as="geometry" />
        </mxCell>
      </root>
    </mxGraphModel>
  </diagram>
  <diagram id="BYzD3MFwf9BdRqlY15Yz" name="UC 1 - Food Resource Declared">
    <mxGraphModel dx="1511" dy="795" grid="1" gridSize="10" guides="1" tooltips="1" connect="1" arrows="1" fold="1" page="1" pageScale="1" pageWidth="850" pageHeight="1100" math="0" shadow="0">
      <root>
        <mxCell id="0" />
        <mxCell id="1" parent="0" />
        <mxCell id="YwiwoOE4lkUkywlC8R9_-1" value="Verbal definition" style="text;strokeColor=none;fillColor=none;html=1;fontSize=24;fontStyle=1;verticalAlign=middle;align=center;" parent="1" vertex="1">
          <mxGeometry x="70" y="10" width="100" height="40" as="geometry" />
        </mxCell>
        <mxCell id="YwiwoOE4lkUkywlC8R9_-2" value="&lt;div&gt;A volunteer wants to give away some clothes and food.&lt;/div&gt;&lt;ul&gt;&lt;li&gt;100 kgs of rice&lt;/li&gt;&lt;li&gt;200 blankets - waterproof&lt;/li&gt;&lt;li&gt;100 sports shoes&lt;/li&gt;&lt;li&gt;100 boots - waterproof&lt;/li&gt;&lt;/ul&gt;" style="text;strokeColor=none;fillColor=none;html=1;whiteSpace=wrap;verticalAlign=middle;overflow=hidden;" parent="1" vertex="1">
          <mxGeometry x="42" y="40" width="270" height="110" as="geometry" />
        </mxCell>
        <mxCell id="YwiwoOE4lkUkywlC8R9_-3" value="&lt;div&gt;Situation:&lt;/div&gt;&lt;ul&gt;&lt;li&gt;Volunteer has internet connection&lt;/li&gt;&lt;li&gt;Has our app&amp;nbsp;&lt;/li&gt;&lt;li&gt;Is a self registered (unverified) user&lt;/li&gt;&lt;li&gt;These information are provided by the v.&lt;/li&gt;&lt;ul&gt;&lt;li&gt;Phone number&lt;/li&gt;&lt;li&gt;Address&lt;/li&gt;&lt;li&gt;Address of the goods (al same place)&lt;/li&gt;&lt;li&gt;ASKED: Take away these before certain date.&lt;/li&gt;&lt;/ul&gt;&lt;/ul&gt;" style="text;strokeColor=none;fillColor=none;html=1;whiteSpace=wrap;verticalAlign=middle;overflow=hidden;" parent="1" vertex="1">
          <mxGeometry x="30" y="140" width="270" height="180" as="geometry" />
        </mxCell>
        <mxCell id="YwiwoOE4lkUkywlC8R9_-4" value="&lt;div&gt;Situation2:&lt;/div&gt;&lt;ul&gt;&lt;li&gt;Volunteer has internet connection&lt;/li&gt;&lt;li&gt;Has our app&amp;nbsp;&lt;/li&gt;&lt;li&gt;Is a verified user&lt;/li&gt;&lt;li&gt;These information are provided by the v.&lt;/li&gt;&lt;ul&gt;&lt;li&gt;Phone number&lt;/li&gt;&lt;li&gt;Address&lt;/li&gt;&lt;li&gt;Address of the goods (al same place)&lt;/li&gt;&lt;li&gt;ASKED: Take away these before certain date.&lt;/li&gt;&lt;/ul&gt;&lt;/ul&gt;" style="text;strokeColor=none;fillColor=none;html=1;whiteSpace=wrap;verticalAlign=middle;overflow=hidden;" parent="1" vertex="1">
          <mxGeometry x="312" y="140" width="270" height="180" as="geometry" />
        </mxCell>
        <mxCell id="YwiwoOE4lkUkywlC8R9_-5" value="&lt;div&gt;Situation3:&lt;/div&gt;&lt;ul&gt;&lt;li&gt;Volunteer has internet connection&lt;/li&gt;&lt;li&gt;Has our app&amp;nbsp;&lt;/li&gt;&lt;li&gt;Is a verified user&lt;/li&gt;&lt;li&gt;These information are provided by the v.&lt;/li&gt;&lt;ul&gt;&lt;li&gt;Phone number&lt;/li&gt;&lt;li&gt;Address&lt;/li&gt;&lt;li&gt;Address of the goods (al same place)&lt;/li&gt;&lt;li&gt;ASKED: Take away these before certain date.&lt;/li&gt;&lt;/ul&gt;&lt;li&gt;Boots, shoes and blankets are packed together.&amp;nbsp;&lt;/li&gt;&lt;/ul&gt;" style="text;strokeColor=none;fillColor=none;html=1;whiteSpace=wrap;verticalAlign=middle;overflow=hidden;" parent="1" vertex="1">
          <mxGeometry x="560" y="140" width="270" height="220" as="geometry" />
        </mxCell>
      </root>
    </mxGraphModel>
  </diagram>
  <diagram id="zCCO1cx8Dha1Tv80fUOR" name="UC 2 - Vehicle Resource Declared">
    <mxGraphModel dx="724" dy="472" grid="1" gridSize="10" guides="1" tooltips="1" connect="1" arrows="1" fold="1" page="1" pageScale="1" pageWidth="850" pageHeight="1100" math="0" shadow="0">
      <root>
        <mxCell id="0" />
        <mxCell id="1" parent="0" />
      </root>
    </mxGraphModel>
  </diagram>
  <diagram id="jKrg6bk0fOhfqyU5LiU9" name="UC 3 - Food Demand">
    <mxGraphModel dx="724" dy="472" grid="1" gridSize="10" guides="1" tooltips="1" connect="1" arrows="1" fold="1" page="1" pageScale="1" pageWidth="850" pageHeight="1100" math="0" shadow="0">
      <root>
        <mxCell id="0" />
        <mxCell id="1" parent="0" />
      </root>
    </mxGraphModel>
  </diagram>
  <diagram id="pGB40jZsvaYnVns1NooZ" name="UC 4 - Rescue Team prepared">
    <mxGraphModel dx="724" dy="472" grid="1" gridSize="10" guides="1" tooltips="1" connect="1" arrows="1" fold="1" page="1" pageScale="1" pageWidth="850" pageHeight="1100" math="0" shadow="0">
      <root>
        <mxCell id="0" />
        <mxCell id="1" parent="0" />
      </root>
    </mxGraphModel>
  </diagram>
</mxfile>
